<svg width="350" height="73" viewBox="0 0 350 73" fill="none" xmlns="http://www.w3.org/2000/svg">
<g clip-path="url(#clip0)">
<path d="M33.0915 73.0012C32.0141 73.0012 30.9752 72.7295 30.0131 72.2635L3.7709 58.9449C1.46218 57.78 -1.32837e-10 55.4113 0 52.7709L1.53937e-09 22.1731C1.66244e-09 19.7267 1.30827 17.4359 3.42458 16.1933L29.6669 0.894369C31.7446 -0.309354 34.4382 -0.309354 36.5161 0.894369L62.7583 16.1933C64.8746 17.4359 66.183 19.7267 66.183 22.1731V52.7709C66.183 55.4113 64.7208 57.78 62.4121 58.9449L36.1697 72.2635C35.2463 72.7683 34.1689 73.0012 33.0915 73.0012ZM33.0915 3.92309C32.5912 3.92309 32.0526 4.07841 31.6293 4.31139L5.38699 19.6103C4.4635 20.154 3.92481 21.1247 3.92481 22.1731V52.7709C3.92481 53.8971 4.54046 54.9065 5.5409 55.4113L31.7833 68.73C32.5912 69.1572 33.5917 69.1572 34.4382 68.73L60.6806 55.4113C61.6809 54.9065 62.2966 53.8971 62.2966 52.7709V22.1731C62.2966 21.1247 61.7195 20.154 60.8344 19.6103L34.5537 4.35021C34.1304 4.07841 33.6301 3.92309 33.0915 3.92309Z" fill="white"/>
<path d="M52.9844 50.4789C52.9844 50.712 52.869 50.9449 52.6766 51.0615C52.4842 51.1779 52.2149 51.1779 52.0225 51.0615L43.0955 46.3241L31.6674 52.4204C31.475 52.537 31.2057 52.537 31.0133 52.4204C30.8208 52.3039 30.7055 52.0709 30.7055 51.838V28.1906L23.4329 32.0736C23.2405 32.1901 23.0097 32.1901 22.8173 32.0736L18.046 29.5497V36.4226L23.0867 39.1019L27.9349 36.539V42.0529L23.4329 44.4603C23.2405 44.5769 23.0097 44.5769 22.8173 44.4603L13.5825 39.5678C13.3516 39.4514 13.2362 39.2183 13.2362 38.9853V22.5216C13.2362 22.2885 13.3516 22.0555 13.544 21.939C13.7364 21.8226 14.0058 21.8226 14.1982 21.9002L23.0867 26.7151L34.5533 20.58C34.7457 20.5024 35.015 20.5024 35.2074 20.6188C35.3999 20.7353 35.5152 20.9683 35.5152 21.2014V44.8486L42.7876 40.9656C42.98 40.8491 43.2108 40.8491 43.4032 40.9656L48.1362 43.4896V36.5779L43.0955 33.8986L38.2472 36.5002V30.9476L42.7876 28.5401C42.98 28.4236 43.2108 28.4236 43.4032 28.5401L52.6382 33.4327C52.869 33.5491 52.9844 33.7822 52.9844 34.0151V50.4789Z" fill="white"/>
<path d="M113.397 23.2985L114.59 51.4889H110.28L109.28 25.1235H108.433L102.392 46.4411C102.123 47.4507 101.546 47.9166 100.545 47.9166H96.8126C95.8122 47.9166 95.1581 47.4507 94.9273 46.4411L88.8476 25.1235H88.0395L87.039 51.4889H82.7679L83.8838 23.2985C83.9224 22.1725 84.5381 21.5124 85.6539 21.5124H90.4251C91.4256 21.5124 91.9258 22.0172 92.2337 22.9879L97.2744 40.5389C97.6591 41.9368 97.967 43.2182 98.2748 44.5773H99.0444C99.3521 43.1793 99.6601 41.9368 100.083 40.5002L105.085 22.9879C105.393 22.0172 105.932 21.5124 106.971 21.5124H111.665C112.743 21.5124 113.358 22.1725 113.397 23.2985Z" fill="white"/>
<path d="M125.518 51.4889H121.209V21.5124H125.518V51.4889Z" fill="white"/>
<path d="M155.223 36.5004C155.223 48.1493 152.106 51.8771 143.487 51.8771C139.37 51.8771 135.907 51.7218 132.752 51.4887V21.5122C135.907 21.2791 139.293 21.1238 143.487 21.1238C152.145 21.1238 155.223 24.8516 155.223 36.5004ZM150.683 36.5004C150.683 27.7637 148.913 24.8903 143.487 24.8903C141.025 24.8903 138.985 24.9291 137.061 24.968V47.994C138.908 48.0329 141.063 48.0718 143.487 48.0718C148.913 48.1105 150.683 45.2372 150.683 36.5004Z" fill="white"/>
<path d="M191.74 50.2459C191.508 50.9837 190.931 51.4885 190.046 51.4885H185.275C184.466 51.4885 183.775 50.9837 183.581 50.1682L179.311 28.1517C179.08 27.0257 178.888 25.8997 178.696 24.7736H177.772C177.541 25.8997 177.387 27.0646 177.118 28.1517L172.847 50.1682C172.731 50.9449 172 51.4885 171.154 51.4885H166.344C165.536 51.4885 164.882 50.9837 164.728 50.2459L159.033 21.5507H163.612L167.883 44.3825C168.114 45.5474 168.229 46.829 168.383 48.1878H169.384C169.538 46.7901 169.769 45.5863 170.038 44.3825L174.309 22.9873C174.463 22.1719 175.079 21.5507 175.964 21.5507H180.581C181.389 21.5507 182.044 22.1719 182.198 22.9873L186.43 44.4603C186.699 45.7027 186.891 47.0229 187.083 48.2267H188.084C188.315 47.0229 188.431 45.6641 188.661 44.4992L192.932 21.5507H197.511L191.74 50.2459Z" fill="white"/>
<path d="M220.558 47.8779L220.79 51.2173C216.864 51.5668 212.325 51.5668 208.052 51.5668C204.358 51.5668 202.128 49.4699 202.088 46.1694V26.8322C202.128 23.5317 204.398 21.4348 208.052 21.4348C212.325 21.4348 216.864 21.4348 220.79 21.7843L220.558 25.1625H208.783C207.053 25.1625 206.398 25.9002 206.398 27.9582V33.938H218.942V37.4716H206.398V45.1209C206.398 47.179 207.053 47.9168 208.783 47.9168H220.558V47.8779Z" fill="white"/>
<path d="M243.914 21.9007L243.645 25.0848C241.143 25.007 237.911 24.8517 235.102 24.8517C231.062 24.8517 229.524 25.007 229.524 29.0065C229.524 32.0742 230.601 32.9283 233.102 33.5497L238.988 35.2194C243.605 36.4618 245.031 39.2576 245.031 43.723C245.031 50.6348 242.068 51.9937 234.91 51.9937C233.024 51.9937 229.716 51.9161 225.56 51.1396L225.868 47.9166C231.254 48.0719 232.755 48.1497 234.988 48.1497C239.335 48.1108 240.644 47.4507 240.644 43.723C240.644 40.4613 239.527 39.7624 237.104 39.1023L231.062 37.3937C226.715 36.1901 225.175 33.4331 225.175 28.8901C225.175 21.9396 228.214 20.9687 234.948 20.9687C237.757 21.0076 240.874 21.1629 243.914 21.9007Z" fill="white"/>
<path d="M271.274 25.3954H261.847V51.4889H257.498V25.3954H248.148V21.5124H271.274V25.3954Z" fill="white"/>
<path d="M294.132 47.8779L294.363 51.2173C290.438 51.5668 285.897 51.5668 281.627 51.5668C277.933 51.5668 275.7 49.4699 275.662 46.1694V26.8322C275.7 23.5317 277.971 21.4348 281.627 21.4348C285.897 21.4348 290.438 21.4348 294.363 21.7843L294.132 25.1625H282.358C280.626 25.1625 279.971 25.9002 279.971 27.9582V33.938H292.515V37.4716H279.971V45.1209C279.971 47.179 280.626 47.9168 282.358 47.9168H294.132V47.8779Z" fill="white"/>
<path d="M321.334 51.4887H316.716L314.177 42.1696C313.484 39.9951 312.331 39.1797 310.445 39.1797C307.904 39.1797 305.942 39.1797 304.326 39.1408V51.5276H300.055V21.5122C303.327 21.1627 305.557 21.1238 310.445 21.1238C317.408 21.1238 320.257 23.0653 320.257 29.8218C320.257 34.5589 318.756 36.9276 314.793 37.4713V37.6653C316.255 38.0925 317.909 39.4127 318.525 42.0142L321.334 51.4887ZM315.909 30.0935C315.909 25.9776 314.523 24.8903 310.367 24.8903C308.058 24.8903 305.982 24.8903 304.326 24.9291V35.4521H310.367C314.523 35.3744 315.909 34.2095 315.909 30.0935Z" fill="white"/>
<path d="M350 49.7805C350 50.9065 349.421 51.4889 348.422 51.4889H344.344C343.381 51.4889 342.88 51.0618 342.496 50.13L333.262 29.7055C332.761 28.5793 331.838 26.7932 331.492 25.5507H330.875C331.029 26.9485 331.107 28.3853 331.107 29.7055V51.4502H326.797V23.2209C326.797 22.0947 327.413 21.5124 328.412 21.5124H332.377C333.338 21.5124 333.838 21.9394 334.261 22.8714L343.265 42.7523C343.843 43.956 344.69 45.7033 345.343 47.2177H345.998C345.882 45.6644 345.767 44.1502 345.767 42.5581V21.5124H350.038V49.7805H350Z" fill="white"/>
</g>
<defs>
<clipPath id="clip0">
<rect width="350" height="73" fill="white"/>
</clipPath>
</defs>
</svg>
